<?xml version="1.0" standalone="no"?>
<!DOCTYPE svg PUBLIC "-//W3C//DTD SVG 20010904//EN"
 "http://www.w3.org/TR/2001/REC-SVG-20010904/DTD/svg10.dtd">
<svg version="1.0" xmlns="http://www.w3.org/2000/svg"
 width="514.000000pt" height="486.000000pt" viewBox="0 0 514.000000 486.000000"
 preserveAspectRatio="xMidYMid meet">

<g transform="translate(0.000000,486.000000) scale(0.100000,-0.100000)"
fill="#000000" stroke="none">
<path d="M1446 4219 c-25 -17 -62 -50 -81 -73 -71 -87 -368 -712 -440 -927
-19 -56 -53 -165 -75 -243 -23 -77 -58 -188 -78 -246 -53 -149 -45 -146 -263
-87 -96 26 -190 47 -209 47 -22 0 -63 -16 -112 -43 l-77 -43 57 -74 c66 -86
67 -87 269 -130 159 -35 197 -51 230 -101 37 -56 57 -200 49 -358 -9 -188 -25
-205 -252 -260 -71 -18 -147 -42 -169 -54 -24 -14 -59 -51 -92 -99 l-54 -77
81 -25 c102 -33 152 -33 225 0 74 32 216 66 263 62 33 -3 40 -8 67 -58 26 -48
30 -67 33 -157 5 -134 -10 -181 -88 -268 -46 -50 -63 -78 -75 -122 -9 -32 -23
-77 -30 -100 l-14 -43 62 6 c132 11 143 14 185 50 85 72 134 58 234 -70 197
-250 317 -324 608 -372 171 -29 640 -13 805 26 50 11 150 32 224 46 87 16 183
42 270 75 75 27 180 66 233 85 117 43 263 123 361 197 167 126 285 255 477
523 52 73 75 77 151 26 47 -32 72 -42 102 -42 42 0 157 37 157 50 0 37 -44
140 -71 165 -17 17 -48 51 -70 76 l-39 46 108 17 c59 9 163 23 232 31 139 17
172 29 236 82 l44 37 -33 28 c-17 16 -51 40 -75 54 l-43 26 -137 -8 c-156 -10
-195 -9 -234 7 -33 14 -33 11 -9 57 26 50 54 74 138 116 56 28 81 48 113 89
22 30 40 56 40 59 0 3 -25 22 -55 43 -49 34 -58 37 -100 32 -35 -5 -47 -3 -51
8 -3 8 2 71 11 141 14 100 16 174 12 353 -2 124 -10 253 -16 286 -7 33 -23
112 -36 175 -13 63 -33 165 -45 225 -40 209 -102 480 -122 534 -22 58 -70 118
-132 163 -49 35 -102 37 -173 4 -60 -28 -97 -64 -211 -201 -45 -55 -103 -124
-127 -153 -27 -32 -45 -63 -45 -78 0 -13 -6 -27 -14 -30 -8 -3 -24 -32 -36
-65 -31 -83 -96 -152 -166 -178 -78 -30 -199 -28 -366 5 -168 33 -348 34 -575
3 -87 -11 -173 -18 -193 -14 -45 8 -71 33 -127 120 -53 81 -328 474 -386 553
-80 106 -187 133 -281 71z m200 -437 c33 -42 85 -113 114 -157 30 -44 77 -111
105 -150 28 -38 73 -106 100 -150 106 -174 157 -196 335 -141 151 45 228 57
420 63 312 9 517 -16 775 -97 90 -28 108 -30 178 -24 65 6 77 9 73 23 -8 27
-34 164 -40 203 -3 29 1 46 21 75 14 21 42 63 63 93 20 30 74 112 119 181 49
75 94 133 112 143 17 10 32 16 33 14 16 -17 37 -79 55 -158 13 -52 35 -149 51
-216 80 -333 111 -751 75 -997 -17 -114 -78 -347 -132 -507 -46 -136 -187
-436 -252 -535 -28 -43 -51 -86 -51 -95 0 -10 -4 -20 -9 -22 -5 -2 -29 -28
-53 -59 -72 -94 -206 -197 -345 -268 -220 -110 -789 -283 -1083 -327 -160 -24
-545 -26 -645 -2 -88 20 -187 66 -256 118 -58 43 -129 138 -155 206 -16 41
-16 47 0 89 14 36 38 62 124 134 59 49 115 97 124 108 16 18 55 169 46 178 -2
3 -43 5 -90 7 -98 3 -110 -3 -233 -112 -72 -63 -101 -77 -108 -51 -3 9 -16 56
-31 105 l-26 88 21 29 c29 41 62 55 208 93 70 19 137 39 149 45 21 11 112 127
112 142 0 9 -111 85 -136 93 -28 8 -137 -15 -248 -54 -49 -17 -101 -30 -115
-28 l-26 3 0 147 c1 81 3 149 6 152 3 3 38 -4 79 -14 96 -25 151 -25 200 0 55
28 74 59 65 110 -12 69 -53 106 -154 136 -169 51 -191 74 -166 180 9 38 27
128 41 199 34 181 69 303 119 420 23 55 53 132 65 170 13 39 61 147 108 240
149 298 158 304 258 177z"/>
<path d="M2266 2543 c-2 -2 -18 -5 -36 -5 -41 -1 -51 -26 -56 -135 -4 -96 -5
-95 99 -77 78 13 88 20 88 60 -3 108 -5 124 -20 137 -16 14 -67 28 -75 20z"/>
<path d="M3635 2481 c-64 -11 -67 -15 -61 -87 3 -35 13 -80 22 -100 17 -35 18
-36 62 -30 25 3 53 6 64 6 25 0 39 39 44 122 4 60 2 68 -17 78 -11 6 -27 9
-34 6 -8 -3 -17 -1 -20 4 -4 6 -9 9 -13 9 -4 -1 -25 -4 -47 -8z"/>
<path d="M2736 2193 c-59 -80 -67 -104 -56 -161 10 -55 26 -94 65 -156 46 -77
49 -189 6 -267 -39 -71 -198 -226 -307 -298 -86 -58 -82 -57 -225 -35 -30 5
-42 1 -70 -24 -19 -17 -41 -43 -50 -59 -15 -26 -15 -32 -1 -78 9 -27 20 -52
25 -54 4 -2 12 -13 16 -25 13 -32 92 -57 204 -63 169 -10 224 23 459 275 62
66 83 83 107 84 33 1 90 -31 108 -61 14 -23 55 -46 117 -66 22 -7 60 -21 84
-29 41 -16 44 -15 107 11 36 16 65 33 65 39 0 5 -17 46 -39 90 -37 77 -41 82
-97 108 -84 39 -130 73 -144 106 -17 40 2 129 44 204 39 70 71 201 63 253 -4
19 -13 46 -21 58 -17 25 -126 88 -191 110 -22 7 -76 28 -120 45 -44 17 -88 34
-97 37 -11 3 -27 -10 -52 -44z"/>
</g>
</svg>
