<?xml version="1.0" standalone="no"?>
<!DOCTYPE svg PUBLIC "-//W3C//DTD SVG 20010904//EN"
 "http://www.w3.org/TR/2001/REC-SVG-20010904/DTD/svg10.dtd">
<svg version="1.0" xmlns="http://www.w3.org/2000/svg"
 width="574.000000pt" height="326.000000pt" viewBox="0 0 574.000000 326.000000"
 preserveAspectRatio="xMidYMid meet">

<g transform="translate(0.000000,326.000000) scale(0.100000,-0.100000)"
fill="#000000" stroke="none">
<path d="M2326 2989 c-55 -43 -170 -291 -242 -519 -25 -80 -51 -151 -58 -158
-10 -10 -28 -8 -93 9 -82 22 -113 21 -146 -5 -18 -14 -18 -15 0 -40 19 -27 66
-48 151 -66 42 -10 56 -18 68 -42 18 -35 22 -185 5 -216 -7 -13 -35 -26 -88
-41 -59 -15 -85 -28 -106 -52 -34 -38 -31 -51 15 -62 27 -6 53 -3 103 12 93
29 103 28 122 -16 23 -55 13 -125 -24 -171 -40 -50 -58 -101 -38 -109 23 -8
81 6 95 22 22 26 50 16 93 -32 97 -110 128 -131 227 -155 80 -19 307 -10 433
17 134 28 292 84 364 127 70 42 160 129 218 208 26 36 52 68 58 72 6 4 28 -2
48 -14 32 -18 41 -19 72 -9 33 11 35 14 26 38 -5 14 -23 43 -40 64 -19 24 -26
39 -17 39 51 1 201 31 222 46 l27 17 -22 23 c-21 22 -31 24 -116 24 -70 0 -93
3 -93 13 0 19 33 52 66 66 16 6 37 23 47 37 18 25 18 26 0 39 -10 8 -31 15
-47 15 -28 0 -28 0 -21 47 17 114 7 263 -30 443 -50 244 -59 273 -97 305 -44
37 -90 30 -138 -23 -74 -82 -102 -119 -130 -172 -43 -84 -60 -95 -139 -92 -36
1 -152 3 -258 5 l-192 2 -96 140 c-53 77 -109 150 -123 162 -34 28 -71 29
-106 2z m200 -325 c47 -71 82 -114 96 -117 12 -4 56 3 97 13 114 30 307 28
437 -5 90 -23 164 -32 164 -20 0 2 -5 27 -11 55 -10 47 -9 53 13 83 13 18 36
52 50 77 29 49 64 90 78 90 12 0 25 -43 56 -185 35 -153 39 -380 11 -485 -29
-107 -55 -177 -97 -263 -109 -224 -160 -268 -411 -351 -202 -68 -318 -88 -469
-84 -110 3 -131 6 -175 29 -56 28 -115 98 -115 134 0 23 9 35 83 102 32 30 52
77 40 95 -13 22 -71 6 -118 -32 -27 -21 -53 -36 -56 -32 -4 4 -12 24 -19 45
-17 54 -4 66 105 96 23 6 54 24 70 41 28 29 28 30 9 45 -33 25 -65 28 -119 11
-90 -28 -95 -25 -95 43 0 33 4 62 8 65 5 3 25 1 46 -5 66 -18 112 11 95 61 -9
23 -21 32 -62 46 -81 26 -80 24 -56 149 11 61 33 142 49 180 16 39 32 81 35
95 11 36 94 193 108 202 16 11 63 -43 153 -178z"/>
<path d="M2655 2271 c-3 -2 -5 -24 -5 -48 l0 -45 33 7 c17 4 35 9 40 12 12 7
8 60 -6 71 -12 11 -53 13 -62 3z"/>
<path d="M3250 2221 c0 -46 10 -61 40 -61 30 0 40 15 40 61 0 27 -2 29 -40 29
-38 0 -40 -2 -40 -29z"/>
<path d="M2881 2120 c-25 -35 -23 -62 10 -126 36 -71 18 -121 -70 -199 -65
-58 -83 -66 -127 -61 -35 4 -45 1 -65 -20 -23 -24 -23 -25 -5 -58 20 -38 39
-46 109 -46 63 0 92 16 159 89 31 34 63 61 73 61 9 0 30 -11 47 -25 43 -36
102 -52 133 -35 14 7 25 16 25 19 0 22 -46 74 -80 91 -22 11 -40 26 -41 33 -3
31 5 65 21 97 17 34 25 74 22 112 -2 19 -40 42 -112 69 -25 9 -52 20 -60 23
-11 4 -24 -4 -39 -24z"/>
<path d="M4418 986 c-10 -10 -18 -71 -26 -217 -7 -112 -17 -235 -22 -272 -13
-90 -1 -121 52 -125 48 -4 64 20 72 113 12 133 16 147 34 133 20 -17 62 -107
62 -134 0 -34 38 -74 70 -74 47 0 63 25 55 84 -6 53 -45 148 -71 177 -14 16
-12 23 33 81 26 35 57 80 68 101 18 34 19 40 5 65 -12 20 -25 28 -52 30 -34 3
-39 0 -64 -40 -40 -62 -94 -128 -105 -128 -5 0 -9 44 -9 98 0 63 -4 102 -12
110 -16 16 -73 15 -90 -2z"/>
<path d="M1957 946 c-97 -35 -182 -130 -217 -244 -45 -147 -12 -260 95 -319
43 -24 61 -28 132 -28 74 0 85 3 124 30 56 40 88 103 88 175 0 83 -30 110
-124 110 -103 0 -155 -38 -134 -100 15 -42 49 -54 94 -35 31 12 35 12 35 -1 0
-20 -35 -52 -64 -60 -34 -8 -88 11 -117 42 -62 66 4 250 107 299 27 13 49 16
85 11 41 -6 52 -3 69 14 39 39 20 93 -38 110 -49 13 -89 12 -135 -4z"/>
<path d="M2445 950 c-50 -15 -110 -74 -135 -132 -17 -39 -25 -78 -28 -146 -5
-108 8 -165 50 -223 41 -56 82 -79 146 -79 69 0 131 30 186 90 56 64 80 138
80 250 0 71 -4 93 -25 135 -35 69 -99 108 -183 112 -33 1 -75 -2 -91 -7z m133
-137 c32 -20 44 -59 40 -128 -4 -71 -38 -146 -75 -171 -33 -21 -79 -21 -104 1
-29 27 -42 112 -29 187 14 76 31 105 73 123 34 15 58 12 95 -12z"/>
<path d="M3942 934 c-56 -28 -103 -88 -124 -158 -7 -23 -13 -84 -13 -136 0
-84 3 -101 28 -153 39 -78 82 -110 158 -115 150 -11 267 118 277 304 6 110
-15 180 -67 227 -69 63 -171 75 -259 31z m165 -114 c1 0 10 -14 18 -31 33 -64
16 -198 -33 -253 -27 -30 -71 -45 -103 -34 -73 25 -80 235 -11 301 32 30 56
36 97 25 16 -4 31 -8 32 -8z"/>
<path d="M5115 903 c-105 -55 -192 -219 -242 -453 -24 -113 -24 -114 -5 -140
14 -18 28 -25 53 -25 40 0 53 21 70 108 l10 57 70 0 69 0 0 -62 c0 -69 4 -79
37 -97 29 -15 71 1 81 31 12 36 -3 467 -18 513 -25 79 -64 100 -125 68z m15
-243 l0 -80 -45 0 c-25 0 -45 2 -45 4 0 21 74 156 85 156 3 0 5 -36 5 -80z"/>
<path d="M982 900 c-12 -5 -26 -20 -31 -32 -12 -33 -35 -316 -36 -433 0 -95 1
-100 24 -111 28 -14 76 -1 85 23 4 8 13 95 21 192 8 97 17 212 21 257 6 77 6
82 -17 98 -26 18 -34 19 -67 6z"/>
<path d="M481 863 c-20 -16 -24 -38 -41 -203 -27 -254 -26 -275 5 -296 24 -15
32 -15 128 4 56 11 125 24 152 27 28 4 58 14 68 22 20 18 23 73 5 91 -15 15
-92 15 -175 1 -35 -6 -66 -9 -68 -7 -2 2 2 64 10 138 19 173 19 205 -1 224
-20 21 -57 20 -83 -1z"/>
<path d="M1514 868 c-4 -7 -20 -80 -34 -163 -23 -127 -29 -146 -38 -125 -5 14
-26 60 -45 103 -34 73 -37 77 -69 77 -58 0 -62 -7 -103 -177 -51 -210 -65
-293 -55 -314 23 -42 81 -52 104 -16 8 12 24 72 36 132 12 61 24 112 26 114 2
2 8 -8 13 -22 35 -93 86 -187 103 -193 28 -9 77 15 83 40 19 82 57 277 70 356
20 126 19 163 -3 183 -22 20 -77 23 -88 5z"/>
<path d="M3280 851 c-46 -24 -95 -98 -120 -179 -42 -135 -65 -373 -38 -400 18
-18 73 -15 91 6 10 11 19 54 26 128 6 61 18 137 27 170 19 74 59 164 73 164 7
0 11 -35 11 -95 0 -82 3 -98 20 -115 43 -43 101 -14 114 56 13 68 65 149 84
130 12 -13 14 -220 3 -312 -9 -74 -8 -91 4 -111 19 -29 67 -31 94 -4 38 38 51
387 18 473 -43 110 -134 139 -214 66 -17 -16 -23 -17 -30 -6 -28 48 -104 61
-163 29z"/>
</g>
</svg>
